<svg xmlns="http://www.w3.org/2000/svg" width="1280" height="720" viewBox="0 0 1280 720">
  <rect width="1280" height="720" fill="#f8fafc"/>
  <text x="90" y="110" fill="#0f172a" font-size="46" font-family="Arial" font-weight="700">Management dashboard</text>
  <rect x="90" y="150" width="220" height="150" rx="20" fill="#dbeafe"/>
  <text x="135" y="214" fill="#1d4ed8" font-size="22" font-family="Arial">Products</text>
  <text x="135" y="255" fill="#0f172a" font-size="46" font-family="Arial" font-weight="700">8</text>

  <rect x="360" y="150" width="220" height="150" rx="20" fill="#dcfce7"/>
  <text x="410" y="214" fill="#166534" font-size="22" font-family="Arial">Distributors</text>
  <text x="410" y="255" fill="#0f172a" font-size="46" font-family="Arial" font-weight="700">3</text>

  <rect x="630" y="150" width="220" height="150" rx="20" fill="#fef3c7"/>
  <text x="685" y="214" fill="#92400e" font-size="22" font-family="Arial">Open Orders</text>
  <text x="685" y="255" fill="#0f172a" font-size="46" font-family="Arial" font-weight="700">5</text>

  <rect x="900" y="150" width="220" height="150" rx="20" fill="#fce7f3"/>
  <text x="960" y="214" fill="#9d174d" font-size="22" font-family="Arial">Revenue</text>
  <text x="960" y="255" fill="#0f172a" font-size="42" font-family="Arial" font-weight="700">₹14k</text>

  <rect x="90" y="360" width="1030" height="220" rx="20" fill="#ffffff" stroke="#cbd5e1"/>
  <text x="130" y="410" fill="#0f172a" font-size="26" font-family="Arial" font-weight="700">Order lifecycle</text>
  <line x1="180" y1="470" x2="260" y2="470" stroke="#22c55e" stroke-width="8"/>
  <circle cx="180" cy="470" r="12" fill="#22c55e"/>
  <circle cx="260" cy="470" r="12" fill="#22c55e"/>
  <line x1="260" y1="470" x2="380" y2="470" stroke="#f59e0b" stroke-width="8"/>
  <circle cx="380" cy="470" r="12" fill="#f59e0b"/>
  <line x1="380" y1="470" x2="550" y2="470" stroke="#38bdf8" stroke-width="8"/>
  <circle cx="550" cy="470" r="12" fill="#38bdf8"/>
  <line x1="550" y1="470" x2="720" y2="470" stroke="#a78bfa" stroke-width="8"/>
  <circle cx="720" cy="470" r="12" fill="#a78bfa"/>
  <text x="150" y="510" fill="#334155" font-size="18" font-family="Arial">Placed</text>
  <text x="245" y="510" fill="#334155" font-size="18" font-family="Arial">Approved</text>
  <text x="350" y="510" fill="#334155" font-size="18" font-family="Arial">Confirmed</text>
  <text x="520" y="510" fill="#334155" font-size="18" font-family="Arial">Dispatched</text>
  <text x="695" y="510" fill="#334155" font-size="18" font-family="Arial">Delivered</text>
</svg>
